<?xml version="1.0" encoding="UTF-8" standalone="no" ?>
<!DOCTYPE svg PUBLIC "-//W3C//DTD SVG 1.1//EN" "http://www.w3.org/Graphics/SVG/1.1/DTD/svg11.dtd">
<svg xmlns="http://www.w3.org/2000/svg" xmlns:xlink="http://www.w3.org/1999/xlink" version="1.1" width="1080" height="1080" viewBox="0 0 1080 1080" xml:space="preserve">
<desc>Created with Fabric.js 5.2.4</desc>
<defs>
</defs>
<rect x="0" y="0" width="100%" height="100%" fill="transparent"></rect>
<g transform="matrix(1 0 0 1 540 540)" id="dbf663eb-344d-452b-b5ea-bdf4fd2505a4"  >
<rect style="stroke: none; stroke-width: 1; stroke-dasharray: none; stroke-linecap: butt; stroke-dashoffset: 0; stroke-linejoin: miter; stroke-miterlimit: 4; fill: rgb(255,255,255); fill-rule: nonzero; opacity: 1; visibility: hidden;" vector-effect="non-scaling-stroke"  x="-540" y="-540" rx="0" ry="0" width="1080" height="1080" />
</g>
<g transform="matrix(1 0 0 1 540 540)" id="808fdff7-d094-4b3f-aaf8-40509cbdadf7"  >
</g>
<g transform="matrix(2.05 0 0 2.05 540 520.8)"  >
<g style="" vector-effect="non-scaling-stroke"   >
		<g transform="matrix(1 0 0 1 0.01 115.53)"  >
<path style="stroke: none; stroke-width: 1; stroke-dasharray: none; stroke-linecap: butt; stroke-dashoffset: 0; stroke-linejoin: miter; stroke-miterlimit: 4; fill: rgb(0,210,255); fill-rule: nonzero; opacity: 1;" vector-effect="non-scaling-stroke"  transform=" translate(-256.01, -371.53)" d="M 430.337 231.065 L 81.674 231.065 C 51.973000000000006 231.065 27.81600000000001 255.225 27.81600000000001 284.927 L 27.81600000000001 334.81100000000004 L 27.81600000000001 350.78700000000003 L 43.62200000000001 353.04900000000004 C 52.757000000000005 354.35900000000004 59.65200000000001 362.307 59.65200000000001 371.53200000000004 C 59.65200000000001 380.75700000000006 52.76100000000001 388.70500000000004 43.63000000000001 390.014 L 27.81600000000001 392.276 L 27.81600000000001 408.254 L 27.81600000000001 458.146 C 27.81600000000001 487.839 51.97300000000001 512 81.674 512 L 430.337 512 C 460.038 512 484.199 487.839 484.199 458.146 L 484.199 408.588 L 484.199 391 L 466.628 390.178 C 456.64599999999996 389.715 448.82 381.523 448.82 371.533 C 448.82 361.55100000000004 456.646 353.35900000000004 466.635 352.887 L 484.199 352.057 L 484.199 334.47700000000003 L 484.199 284.927 C 484.199 255.225 460.038 231.065 430.337 231.065 z M 465.765 334.477 C 446.079 335.41299999999995 430.394 351.61699999999996 430.394 371.53299999999996 C 430.394 391.45599999999996 446.079 407.66799999999995 465.765 408.58799999999997 L 465.765 458.14599999999996 C 465.765 477.71099999999996 449.901 493.57399999999996 430.337 493.57399999999996 L 81.674 493.57399999999996 C 62.105000000000004 493.57399999999996 46.242000000000004 477.71099999999996 46.242000000000004 458.14599999999996 L 46.242000000000004 408.25399999999996 C 64.233 405.67499999999995 78.078 390.24299999999994 78.078 371.532 C 78.078 352.829 64.232 337.397 46.242000000000004 334.811 L 46.242000000000004 284.92699999999996 C 46.242000000000004 265.354 62.105000000000004 249.49099999999996 81.674 249.49099999999996 L 430.337 249.49099999999996 C 449.901 249.49099999999996 465.765 265.3539999999999 465.765 284.92699999999996 L 465.765 334.477 z" stroke-linecap="round" />
</g>
		<g transform="matrix(1 0 0 1 -116.28 199.32)"  >
<rect style="stroke: none; stroke-width: 1; stroke-dasharray: none; stroke-linecap: butt; stroke-dashoffset: 0; stroke-linejoin: miter; stroke-miterlimit: 4; fill: rgb(0,210,255); fill-rule: nonzero; opacity: 1;" vector-effect="non-scaling-stroke"  x="-6.095" y="-15.9" rx="0" ry="0" width="12.19" height="31.8" />
</g>
		<g transform="matrix(1 0 0 1 -116.28 143.46)"  >
<rect style="stroke: none; stroke-width: 1; stroke-dasharray: none; stroke-linecap: butt; stroke-dashoffset: 0; stroke-linejoin: miter; stroke-miterlimit: 4; fill: rgb(0,210,255); fill-rule: nonzero; opacity: 1;" vector-effect="non-scaling-stroke"  x="-6.095" y="-15.896" rx="0" ry="0" width="12.19" height="31.792" />
</g>
		<g transform="matrix(1 0 0 1 -116.28 87.6)"  >
<rect style="stroke: none; stroke-width: 1; stroke-dasharray: none; stroke-linecap: butt; stroke-dashoffset: 0; stroke-linejoin: miter; stroke-miterlimit: 4; fill: rgb(0,210,255); fill-rule: nonzero; opacity: 1;" vector-effect="non-scaling-stroke"  x="-6.095" y="-15.9" rx="0" ry="0" width="12.19" height="31.8" />
</g>
		<g transform="matrix(1 0 0 1 -116.28 31.75)"  >
<rect style="stroke: none; stroke-width: 1; stroke-dasharray: none; stroke-linecap: butt; stroke-dashoffset: 0; stroke-linejoin: miter; stroke-miterlimit: 4; fill: rgb(0,210,255); fill-rule: nonzero; opacity: 1;" vector-effect="non-scaling-stroke"  x="-6.095" y="-15.8995" rx="0" ry="0" width="12.19" height="31.799" />
</g>
		<g transform="matrix(1 0 0 1 -142.35 -58.39)"  >
<polygon style="stroke: none; stroke-width: 1; stroke-dasharray: none; stroke-linecap: butt; stroke-dashoffset: 0; stroke-linejoin: miter; stroke-miterlimit: 4; fill: rgb(0,210,255); fill-rule: nonzero; opacity: 1;" vector-effect="non-scaling-stroke"  points="-2.4,-16.85 -13.05,-10.93 2.41,16.85 13.06,10.93 " />
</g>
		<g transform="matrix(1 0 0 1 0 -130.43)"  >
<path style="stroke: none; stroke-width: 1; stroke-dasharray: none; stroke-linecap: butt; stroke-dashoffset: 0; stroke-linejoin: miter; stroke-miterlimit: 4; fill: rgb(0,210,255); fill-rule: nonzero; opacity: 1;" vector-effect="non-scaling-stroke"  transform=" translate(-256, -125.57)" d="M 497.524 179.025 L 473.429 135.714 L 464.871 120.354 L 449.12199999999996 128.18 C 440.174 132.622 429.3539999999999 129.27 424.50499999999994 120.54100000000001 C 419.63999999999993 111.82000000000001 422.50399999999996 100.85400000000001 430.99699999999996 95.59100000000001 L 445.94899999999996 86.325 L 437.39099999999996 70.95700000000001 L 413.30299999999994 27.66300000000001 C 398.863 1.714 366.006 -7.658 340.047 6.79 L 35.374 176.299 C 9.419000000000004 190.739 0.05600000000000449 223.604 14.496000000000002 249.555 L 15.371000000000002 251.133 C 18.641000000000002 244.739 22.801000000000002 238.89000000000001 27.695 233.72400000000002 C 22.892 218.08100000000002 29.457 200.68 44.331 192.39800000000002 L 349.012 22.888000000000034 C 366.112 13.370000000000033 387.686 19.520000000000035 397.204 36.62000000000003 L 421.29200000000003 79.92200000000003 C 404.54100000000005 90.30200000000002 398.71700000000004 112.10400000000003 408.39700000000005 129.50400000000002 C 418.07800000000003 146.90500000000003 439.66800000000006 153.44600000000003 457.32200000000006 144.67600000000002 L 481.41700000000003 187.988 C 488.69000000000005 201.044 486.754 216.68 477.846 227.589 C 482.622 231.55 486.835 236.147 490.496 241.158 C 505.4 224.524 508.979 199.615 497.524 179.025 z" stroke-linecap="round" />
</g>
</g>
</g>
</svg>